<?xml version="1.0" encoding="iso-8859-1"?>
<!-- Generator: Adobe Illustrator 19.0.0, SVG Export Plug-In . SVG Version: 6.00 Build 0)  -->
<svg version="1.1" id="Capa_1" xmlns="http://www.w3.org/2000/svg" xmlns:xlink="http://www.w3.org/1999/xlink" x="0px" y="0px"
	 viewBox="0 0 512 512" style="enable-background:new 0 0 512 512;" xml:space="preserve">
<g>
	<g>
		<path d="M498.797,292.548C504.985,282.097,512,270.253,512,256c0-14.252-7.015-26.098-13.203-36.549
			c-3.675-6.205-7.146-12.067-8.263-16.978c-1.202-5.291-0.612-12.303,0.012-19.726c1.003-11.92,2.14-25.43-3.855-37.856
			c-6.093-12.63-17.475-20.202-27.517-26.882c-6.104-4.062-11.871-7.897-15.126-11.974c-3.295-4.127-5.774-10.635-8.4-17.526
			c-4.279-11.232-9.13-23.963-20.02-32.658c-10.842-8.657-24.302-10.566-36.177-12.251c-7.333-1.04-14.259-2.022-19.071-4.344
			c-4.625-2.231-9.609-6.961-14.885-11.968c-8.787-8.339-18.746-17.79-32.536-20.925c-13.314-3.028-26.149,1.066-37.474,4.677
			c-7.171,2.286-13.943,4.445-19.485,4.445s-12.315-2.159-19.486-4.445c-11.325-3.611-24.16-7.701-37.475-4.677
			c-13.789,3.135-23.747,12.586-32.534,20.924c-5.276,5.007-10.26,9.736-14.886,11.969c-4.812,2.321-11.738,3.304-19.071,4.344
			c-11.875,1.685-25.334,3.594-36.177,12.25c-10.889,8.695-15.739,21.426-20.019,32.658c-2.625,6.891-5.105,13.399-8.401,17.526
			c-3.255,4.077-9.021,7.913-15.126,11.974c-10.042,6.681-21.424,14.253-27.517,26.883c-5.996,12.427-4.859,25.937-3.856,37.855
			c0.625,7.423,1.214,14.435,0.012,19.727c-1.116,4.911-4.587,10.773-8.263,16.979C7.014,229.904,0,241.749,0,256
			c0,14.252,7.014,26.097,13.203,36.548c3.675,6.206,7.146,12.067,8.262,16.979c1.203,5.291,0.613,12.303-0.012,19.726
			c-1.003,11.919-2.14,25.429,3.855,37.855c6.093,12.63,17.475,20.202,27.518,26.882c6.104,4.062,11.871,7.897,15.126,11.974
			c3.295,4.127,5.775,10.636,8.4,17.526c4.28,11.232,9.13,23.963,20.02,32.658c10.841,8.657,24.301,10.566,36.177,12.251
			c7.333,1.04,14.258,2.022,19.07,4.344c4.626,2.231,9.609,6.961,14.886,11.968c8.787,8.339,18.746,17.79,32.535,20.925
			c13.316,3.028,26.15-1.066,37.474-4.677c7.171-2.286,13.944-4.445,19.486-4.445c5.542,0,12.315,2.159,19.486,4.445
			c8.556,2.729,17.974,5.73,27.81,5.73c3.183,0,6.409-0.314,9.664-1.054c13.789-3.135,23.747-12.585,32.534-20.924
			c5.275-5.007,10.26-9.736,14.886-11.969c4.812-2.321,11.739-3.304,19.071-4.344c11.875-1.685,25.334-3.594,36.177-12.25
			c10.889-8.696,15.739-21.427,20.019-32.658c2.626-6.891,5.105-13.399,8.4-17.526c3.256-4.076,9.021-7.913,15.126-11.974
			c10.043-6.681,21.425-14.252,27.518-26.883c5.995-12.427,4.858-25.937,3.855-37.856c-0.624-7.423-1.214-14.435-0.012-19.725
			C491.65,304.615,495.122,298.754,498.797,292.548z M472.983,277.262c-4.692,7.923-9.543,16.116-11.703,25.616
			c-2.232,9.823-1.38,19.952-0.628,28.889c0.746,8.877,1.452,17.262-0.981,22.307c-2.526,5.235-9.612,9.949-17.114,14.94
			c-7.754,5.158-15.772,10.492-21.953,18.232c-6.218,7.787-9.816,17.231-12.991,25.563c-3.195,8.388-6.214,16.311-10.704,19.896
			c-4.442,3.547-12.811,4.733-21.67,5.99c-8.849,1.255-18.879,2.678-27.894,7.027c-8.845,4.267-15.788,10.855-22.502,17.228
			c-6.568,6.233-12.772,12.121-18.532,13.431c-5.344,1.213-13.292-1.32-21.712-4.005c-8.62-2.748-18.39-5.863-28.599-5.863
			c-10.208,0-19.979,3.115-28.599,5.863c-8.418,2.684-16.37,5.217-21.711,4.005c-5.76-1.31-11.965-7.197-18.534-13.432
			c-6.714-6.371-13.657-12.96-22.5-17.227c-9.015-4.35-19.045-5.772-27.894-7.027c-8.859-1.257-17.228-2.443-21.671-5.991
			c-4.49-3.586-7.509-11.508-10.705-19.896c-3.175-8.333-6.773-17.777-12.991-25.564c-6.18-7.739-14.199-13.074-21.953-18.232
			c-7.502-4.991-14.588-9.705-17.114-14.939c-2.433-5.044-1.728-13.429-0.981-22.305c0.752-8.938,1.605-19.066-0.628-28.891
			c-2.159-9.5-7.011-17.693-11.703-25.616C34.38,269.432,30,262.035,30,256c0-6.035,4.379-13.431,9.017-21.261
			c4.692-7.924,9.543-16.117,11.703-25.616c2.233-9.824,1.381-19.954,0.629-28.891c-0.747-8.877-1.452-17.262,0.981-22.306
			c2.525-5.235,9.611-9.949,17.113-14.939c7.754-5.159,15.773-10.493,21.953-18.232c6.218-7.788,9.816-17.232,12.992-25.565
			c3.196-8.388,6.214-16.31,10.704-19.896c4.442-3.547,12.811-4.733,21.67-5.99c8.849-1.255,18.879-2.678,27.895-7.027
			c8.844-4.267,15.787-10.855,22.501-17.228c6.568-6.233,12.772-12.121,18.532-13.431c5.343-1.214,13.294,1.32,21.712,4.005
			c8.62,2.748,18.39,5.863,28.599,5.863c10.208,0,19.979-3.115,28.598-5.863c8.42-2.684,16.376-5.218,21.712-4.005
			c5.761,1.31,11.965,7.197,18.534,13.432c6.714,6.371,13.656,12.96,22.501,17.227c9.015,4.35,19.044,5.772,27.894,7.027
			c8.859,1.257,17.228,2.443,21.671,5.991c4.49,3.585,7.509,11.508,10.704,19.896c3.175,8.332,6.773,17.776,12.991,25.563
			c6.18,7.739,14.198,13.073,21.953,18.232c7.502,4.99,14.588,9.704,17.113,14.939c2.434,5.045,1.728,13.43,0.981,22.307
			c-0.752,8.937-1.604,19.065,0.628,28.89c2.16,9.499,7.011,17.691,11.703,25.614C477.62,242.568,482,249.964,482,256
			C482,262.035,477.62,269.432,472.983,277.262z"/>
	</g>
</g>
<g>
	<g>
		<path d="M256,76.001c-99.252,0-180,80.748-180,180s80.748,180,180,180s180-80.748,180-180S355.252,76.001,256,76.001z M106,256
			c0-82.71,67.29-150,150-150c9.315,0,18.432,0.861,27.282,2.494L108.494,283.282C106.861,274.432,106,265.315,106,256z
			 M118.435,315.766l197.331-197.331c34.73,15.147,62.652,43.069,77.799,77.799L196.234,393.565
			C161.504,378.418,133.582,350.496,118.435,315.766z M256,406c-9.315,0-18.432-0.861-27.282-2.494l174.788-174.788
			C405.139,237.568,406,246.686,406,256C406,338.71,338.71,406,256,406z"/>
	</g>
</g>
<g>
</g>
<g>
</g>
<g>
</g>
<g>
</g>
<g>
</g>
<g>
</g>
<g>
</g>
<g>
</g>
<g>
</g>
<g>
</g>
<g>
</g>
<g>
</g>
<g>
</g>
<g>
</g>
<g>
</g>
</svg>
