<svg id="Capa_1" enable-background="new 0 0 512 512" height="512" viewBox="0 0 512 512" width="512" xmlns="http://www.w3.org/2000/svg"><g><path d="m76 271c3.575 0 7.197-.187 10.845-.523-4.701 37.659 1.395 67.199 4.666 79.405 2.155 8.043 10.418 12.738 18.371 10.606 1.023-.274 11.277-2.633 16.033-3.858-3.953 31.378 2.416 52.882 10.596 83.252 1.76 6.569 7.714 11.118 14.489 11.118 5.606 0 31.783-8.478 40.231-11.78 7.539 32.518 30.715 50.195 45.603 61.532 3.644 2.775 6.791 5.171 8.805 7.095 2.899 2.769 6.63 4.153 10.361 4.153s7.462-1.385 10.361-4.153c2.012-1.922 5.158-4.318 8.801-7.092 14.882-11.334 38.047-29.005 45.583-61.489 12.162 4.73 24.135 7.945 36.373 11.224 7.932 2.124 16.208-2.541 18.371-10.607 7.916-29.576 14.544-51.171 10.549-83.295 6.156 1.609 14.057 3.36 16.08 3.902 8.053 2.157 16.24-2.656 18.371-10.606 3.272-12.212 9.37-41.758 4.669-79.405 3.648.334 7.268.521 10.842.521 8.284 0 15-6.716 15-15 0-71.796-20.83-124.77-61.912-157.449-29.24-23.259-68.917-36.09-118.088-38.228v-15.323c0-8.271 6.729-15 15-15 8.284 0 15-6.716 15-15s-6.716-15-15-15c-24.813 0-45 20.187-45 45v15.322c-49.207 2.13-88.881 14.927-118.081 38.126-41.086 32.643-61.919 85.651-61.919 157.552 0 8.284 6.716 15 15 15zm85.578 146.533c-6.664-25.307-9.823-42.651-3.354-71.638 10.651-4.467 19.816-9.306 28.683-14.972 6.542 21.249 19.604 41.302 32.491 57.361-20.056 16.519-38.328 23.601-57.82 29.249zm51.408-107.233c7.165-7.011 13.567-14.644 19.182-22.886 8.834 7.008 15.211 10.906 16.115 11.448 4.75 2.85 10.684 2.85 15.435 0 .904-.542 7.283-4.441 16.118-11.451 5.861 8.584 12.343 16.152 19.191 22.817-3.225 27.845-27.206 57.565-43.026 74.444-15.814-16.868-39.778-46.563-43.015-74.372zm43.999 166.588c-.33.251-.659.501-.985.75-.328-.25-.659-.502-.99-.754-14.698-11.192-32.662-24.881-35.776-51.606 6.581-4.085 13.289-8.892 20.141-14.6 2.287 2.319 4.399 4.387 6.264 6.169 5.797 5.537 14.923 5.538 20.722 0 1.866-1.783 3.979-3.852 6.267-6.171 6.888 5.74 13.575 10.556 20.117 14.636-3.106 26.697-21.066 40.385-35.76 51.576zm93.444-59.346c-19.879-5.734-37.66-12.645-57.824-29.263 12.909-16.088 25.994-36.185 32.528-57.484 9.678 6.171 19.416 11.055 28.599 14.932 6.53 29.344 3.185 47.248-3.303 71.815zm19.983-295.513c30.552 24.303 47.396 63.82 50.176 117.618-27.062-4.465-57.909-19.339-80.605-34.81 3.759-11.931 6.017-24.893 6.017-38.837 0-26.454-3.945-47.608-11.975-63.961 13.86 5.075 26.015 11.74 36.387 19.99zm23.448 142.134c4.699 26.386 2.963 49.103.637 63.633-6.443-1.653-14.209-3.893-22.614-7.05-.177-.068-.351-.141-.53-.202-23.002-8.721-50.646-24.354-69.116-53.677 8.896-9.436 17.949-20.857 25.498-34.134 18.841 12.304 42.214 24.247 66.125 31.43zm-137.86-174.163c38.099 0 60 14.449 60 76 0 51.914-42.281 88.683-60.027 101.827-17.778-13.093-59.973-49.668-59.973-101.827 0-61.447 21.869-76 60-76zm-46.237 176.865c-25.57 40.507-68.269 54.832-92.257 60.945-2.324-14.526-4.061-37.246.637-63.648 23.91-7.183 47.282-19.125 66.123-31.431 7.548 13.277 16.602 24.699 25.497 34.134zm-68.182-144.928c10.371-8.24 22.538-14.893 36.422-19.957-8.049 16.361-12.003 37.534-12.003 64.02 0 13.944 2.258 26.906 6.018 38.838-22.696 15.47-53.545 30.345-80.607 34.81 2.776-53.887 19.618-93.438 50.17-117.711z"/></g></svg>